<?xml version="1.0" encoding="UTF-8" standalone="no"?>
<!DOCTYPE svg PUBLIC "-//W3C//DTD SVG 20010904//EN"
              "http://www.w3.org/TR/2001/REC-SVG-20010904/DTD/svg10.dtd">

<svg xmlns="http://www.w3.org/2000/svg"
     width="105.467mm" height="88.1834mm"
     viewBox="0 0 299 250">
  <g><path d="M 43.00,70.00
           C 43.00,70.00 10.00,59.33 10.00,59.33
             7.29,58.43 -0.80,56.58 1.17,52.26
             2.46,49.41 11.92,47.03 15.00,46.00
             15.00,46.00 57.00,32.00 57.00,32.00
             57.00,32.00 122.00,10.33 122.00,10.33
             127.61,8.46 147.55,1.18 152.00,1.18
             156.74,1.18 172.40,7.47 178.00,9.33
             178.00,9.33 235.00,28.67 235.00,28.67
             235.00,28.67 284.00,45.58 284.00,45.58
             297.68,50.69 301.00,52.75 295.75,58.75
             295.75,58.75 260.00,70.67 260.00,70.67
             260.00,70.67 195.00,92.00 195.00,92.00
             195.00,92.00 167.00,101.00 167.00,101.00
             167.00,101.00 152.00,105.38 152.00,105.38
             152.00,105.38 127.00,98.00 127.00,98.00
             127.00,98.00 68.00,79.00 68.00,79.00
             71.23,73.47 81.15,70.94 87.00,68.60
             87.00,68.60 137.00,49.58 137.00,49.58
             140.22,48.36 154.95,43.45 156.37,41.51
             158.39,38.76 154.77,36.24 151.00,36.29
             147.75,36.33 136.74,40.94 133.00,42.32
             133.00,42.32 86.00,60.60 86.00,60.60
             77.61,63.96 63.89,69.31 57.00,74.68
             49.18,80.78 41.84,94.86 43.16,105.00
             43.99,111.36 50.29,112.92 50.88,121.00
             51.44,128.58 47.03,131.25 46.96,136.00
             46.96,136.00 49.86,151.00 49.86,151.00
             49.86,151.00 49.86,169.00 49.86,169.00
             49.81,185.28 40.63,203.78 22.00,202.96
             15.48,202.67 4.75,197.99 5.74,190.00
             6.34,185.16 13.04,178.97 16.11,175.00
             22.15,167.19 25.50,160.64 27.76,151.00
             28.50,147.87 30.18,139.90 28.89,137.09
             27.09,133.16 21.33,131.73 21.06,123.00
             20.74,112.89 27.40,111.61 29.41,106.83
             29.41,106.83 31.67,93.00 31.67,93.00
             33.58,84.17 37.19,76.89 43.00,70.00 Z" /></g>
          <g><path d="
           M 154.00,118.00
           C 154.00,118.00 174.00,111.00 174.00,111.00
             174.00,111.00 223.00,94.31 223.00,94.31
             227.45,92.72 241.67,85.70 244.98,90.43
             246.22,92.21 246.00,95.87 246.00,98.00
             246.00,98.00 246.00,167.00 246.00,167.00
             246.00,167.00 246.00,180.00 246.00,180.00
             245.99,182.33 246.25,186.40 244.26,188.01
             242.72,189.25 238.94,189.00 237.00,189.00
             237.00,189.00 163.00,189.00 163.00,189.00
             163.00,189.00 163.00,154.00 163.00,154.00
             163.00,154.00 188.00,154.00 188.00,154.00
             188.00,154.00 154.00,118.00 154.00,118.00 Z" /></g>
          <g><path d="
           M 117.00,188.00
           C 117.00,188.00 68.00,188.00 68.00,188.00
             59.85,187.85 60.01,185.22 60.00,178.00
             60.00,178.00 60.00,102.00 60.00,102.00
             60.00,100.05 59.89,96.82 60.60,95.06
             63.54,87.76 77.50,94.81 83.00,96.42
             83.00,96.42 110.00,104.98 110.00,104.98
             110.00,104.98 152.00,118.00 152.00,118.00
             152.00,118.00 133.00,137.09 133.00,137.09
             133.00,137.09 115.00,154.00 115.00,154.00
             115.00,154.00 142.00,154.00 142.00,154.00
             142.00,154.00 142.00,203.00 142.00,203.00
             142.00,203.00 170.00,203.00 170.00,203.00
             163.09,212.66 150.62,222.60 142.00,231.01
             139.55,233.40 133.34,240.71 130.00,240.66
             126.70,240.62 121.65,234.56 119.52,232.18
             113.26,225.20 96.06,209.48 93.00,203.00
             93.00,203.00 117.00,203.00 117.00,203.00
             117.00,203.00 117.00,188.00 117.00,188.00 Z" /></g>
</svg>
